<svg version="1.2" xmlns="http://www.w3.org/2000/svg" viewBox="0 0 2111 330" width="2111" height="330">
	<title>logo</title>
	<defs>
		<clipPath clipPathUnits="userSpaceOnUse" id="cp1">
			<path d="m46.74 121.45c-3.52 52.31-19.17 97.05-44.88 135.53-3.97 5.94-1.3 14.02 5.43 16.41 92.75 33.05 161.79 36.23 210.78 22.63 1.38-0.39 1.18-2.37-0.24-2.51-23.11-2.19-42.16-20.52-44.44-44.49-2.58-27.14 17.33-51.24 44.48-53.82 27.15-2.58 51.25 17.33 53.83 44.47 1.15 12.15-2.2 23.69-8.68 32.96-0.82 1.18 0.61 2.61 1.79 1.78 79.38-55.93 59.98-174.74-13.58-197.27q-8.12-2.52-17.09-3.36-1.32-2.27-2.74-4.43c-17.53-26.5-46.57-38.95-76.56-38.95-48.52 0-99.5 32.6-108.1 91.05z"/>
		</clipPath>
		<linearGradient id="g1" x2="1" gradientUnits="userSpaceOnUse" gradientTransform="matrix(184.96,152.849,-149.764,181.226,45.088,83.418)">
			<stop offset="0" stop-color="#9bf7ab"/>
			<stop offset="1" stop-color="#38cc53"/>
		</linearGradient>
		<clipPath clipPathUnits="userSpaceOnUse" id="cp2">
			<path d="m253.25 0c-2.52 0.04-4.72 1.76-5.34 4.21l-16.51 65.14q1.43 2.16 2.74 4.43 8.97 0.84 17.09 3.36l44.52-46.53c1.79-1.88 2.05-4.73 0.64-6.9-9.35-14.5-22.49-23.72-42.27-23.72q-0.44 0-0.87 0.01z"/>
		</clipPath>
		<linearGradient id="g2" x2="1" gradientUnits="userSpaceOnUse" gradientTransform="matrix(7.244,76.203,-67.316,6.399,282.395,29.915)">
			<stop offset="0" stop-color="#9bf7ab"/>
			<stop offset="1" stop-color="#38cc53"/>
		</linearGradient>
	</defs>
	<style>
		.s0 { fill: #ffffff } 
		.s1 { fill: url(#g1) } 
		.s2 { fill: url(#g2) } 
		.s3 { fill: #3dd054 } 
	</style>
	<g id="Layer_1-2">
		<g>
			<g>
				<path class="s0" d="m606.3 67.2v202.9c0 17.4-11.3 26.5-25.8 26.5-12 0-21.4-6.2-28.3-16l-103.4-141.5v129.9c0 14.9-12 27.6-27.3 27.6-15.2 0-28.3-12.7-28.3-27.6v-203.3c0-17 11.3-26.4 26.2-26.4 11.6 0 21 6.1 27.9 15.9l103.4 141.6v-129.6c0-15.2 12.4-27.9 27.2-27.9 16 0 28.4 12.7 28.4 27.9z"/>
				<path class="s0" d="m830.5 200.8c0 64.9-56.2 96.1-97.6 96.1-41.4 0-97.6-31.2-97.6-96.1 0-65 55.9-97.3 97.6-97.3 41.7 0 97.6 32.7 97.6 97.3zm-143 0c0 30.4 21.1 50 45.4 50 24.3 0 45-19.6 45-50 0-30.5-21-51.2-45-51.2-24 0-45.4 19.6-45.4 51.2z"/>
				<path class="s0" d="m1045 200.8c0 64.9-56.3 96.1-97.6 96.1-41.4 0-97.7-31.2-97.7-96.1 0-65 55.9-97.3 97.7-97.3 41.7 0 97.6 32.7 97.6 97.3zm-143 0c0 30.4 21.1 50 45.4 50 24.3 0 45-19.6 45-50 0-30.5-21.1-51.2-45-51.2-24 0-45.4 19.6-45.4 51.2z"/>
				<path class="s0" d="m1246.8 273c0 12.3-10.2 23.2-23.3 23.2-6.5 0-12.7-2.9-16.3-7.2l-61-69-19.2 17.8v32.3c0 14.5-12 26.1-26.5 26.1-14.5 0-26.5-11.6-26.5-26.1v-208.3c0-14.6 12-26.5 26.5-26.5 14.5 0 26.5 12 26.5 26.5v113.9l65.7-63.5c4.3-4.3 11.2-7.6 17.8-7.6 13.4 0 23.9 11.2 23.9 23.9 0 6.9-2.2 12.7-6.5 17.1l-48.3 44.3 60.6 67.5c3.3 3.2 6.6 9 6.6 15.6"/>
				<path class="s0" d="m1580.6 192.1v78c0 14.5-12.3 26.1-26.5 26.1-14.1 0-26.5-11.6-26.5-26.1v-78c0-30.2-14.8-43.2-35.2-43.2-30.8 0-39.9 30.5-40.6 37.3v-0.3 84.2c0 14.5-12 26.1-26.5 26.1-14.5 0-26.5-11.6-26.5-26.1v-78c0-30.2-14.9-43.2-34.8-43.2-31.2 0-40 30.5-40.7 37.3v83.9c0 14.5-12 26.1-26.5 26.1-14.5 0-26.5-11.6-26.5-26.1v-138.7c0-14.8 12-26.8 26.5-26.8 14.5 0 26.5 12 26.5 26.8v14.6c1.5-13.5 22.2-42.1 60.6-42.1 26.9 0 50.5 13.4 61.3 44.6 10.2-22.1 33.1-44.6 67.2-44.6 37 0 68.2 25 68.2 88.2z"/>
				<path class="s0" d="m1800.9 130.7v139.7c0 14.6-12.7 26.2-26.9 26.2-14.1 0-26.5-11.6-26.5-25.8-4.3 10.2-21.7 26.1-50.4 26.1-39.9 0-87.5-30.8-87.5-96.9 0-66 47.9-96.5 87.5-96.5 25 0 44.3 13.8 50.4 28.7v-1.5c0-14.1 12-26.1 26.5-26.1 14.6 0 26.9 12 26.9 26.1zm-51.2 69.3c0-38.1-24.7-51.1-42.8-51.1-22.1 0-44.3 17.4-44.3 51.1 0 33.8 22.2 51.6 44.3 51.6 18.2 0 42.8-13.1 42.8-51.6z"/>
				<path class="s0" d="m1968.9 128.2c0 14.5-11.2 24.7-33.8 24.7-27.2 0-43.9 20.6-45 33.3v83.9c0 14.1-11.9 26.1-26.5 26.1-14.5 0-26.4-12-26.4-26.1v-138.7c0-14.8 11.9-26.8 26.4-26.8 14.6 0 26.5 12 26.5 26.8v14.6c1.5-13.5 23.6-42.1 54.1-42.1 16.3 0 24.7 11.2 24.7 24.3z"/>
				<path class="s0" d="m2110.1 268.3c0 18.1-16 27.9-43.2 27.9-27.3 0-53.4-8.4-53.4-63.5v-85.7h-8.7c-13 0-21.4-8.7-21.4-20.7 0-11.9 8.3-20.6 21.4-20.6h8.7v-22.9c0-14.5 12.4-26.5 26.5-26.5 14.2 0 26.5 12 26.5 26.5v22.9h22.5c13.1 0 21.1 8.7 21.1 20.6 0 12-8 20.7-21.1 20.7h-22.5v87.5c0 10.5 3.3 16 10.9 16 3.6 0 9.8-1.5 13.8-1.1 11.6-0.4 18.9 6.9 18.9 18.9z"/>
			</g>
			<g>
				<g id="Clip-Path" clip-path="url(#cp1)">
					<g>
						<path fill-rule="evenodd" class="s1" d="m-139.2 196.3l277.6-335.9 342.9 283.3-277.6 336z"/>
					</g>
				</g>
				<g id="Clip-Path" clip-path="url(#cp2)">
					<g>
						<path fill-rule="evenodd" class="s2" d="m224.1 0.7l73.1-6.9 7.9 82.7-73.1 6.9z"/>
					</g>
				</g>
				<path class="s3" d="m214.8 85.6c-7-4.6-16.5-2.8-21.7 3.8l-4.5 5.6c-19-1.3-38.1-0.8-56.7 2.2-16.5 2.5-32.5 6.9-47.6 13.1-1.6 0.6-0.9 3 0.8 2.8 15.8-2.6 31.8-3.3 47.4-2.2 13.1 0.9 26 3.1 38.6 6.2l-9.6 12.1-4 5.1-4 5.1c-1.4 1.7-2.7 3.4-4 5.2q-1.9 2.6-3.9 5.2-5.3 7.1-10.4 14.4-0.4-0.1-0.8-0.2h-0.1c-12.9-1.2-25.9-1-38.6 1-9 1.4-17.9 3.7-26.2 7-1.4 0.5-0.8 2.4 0.6 2.2 8.7-1.2 17.4-1.5 26-0.9 10 0.7 19.8 2.6 29.3 5.3q-2.7 4.1-5.3 8.1-1 1.2-1.6 2.6-8 12.6-15.3 25.5-8.2 14.4-15.5 29.1c-0.8 1.6 1.5 2.9 2.5 1.5q9.5-13.3 19.7-26.1 5.4-6.8 11-13.4c1.8 5.6 4.1 10.9 6.9 15.9 3.1 5.5 6.8 10.5 10.9 15 1.1 1.3 3 0 2.3-1.6-2.4-5.3-4.2-10.8-5.4-16.4-0.8-3.7-1.1-9.6-1.2-15.1-0.2-8.4 2.9-16.5 8.6-22.6q0 0 0.1-0.1 8.7-9.2 17.7-18c1.5-1.5 3-2.9 4.5-4.4q2.3-2.1 4.6-4.3l2.9-2.7c1.9 5.8 4.2 11.4 7.2 16.5 2.6 4.7 5.7 9.1 9 13.1 1.4 1.6 4 0 3.2-1.9-2-4.6-3.5-9.4-4.5-14.2q-0.1-0.8-0.3-1.6c-2.1-14 3.1-28.2 13.5-37.7l16-14.8c0.6-0.5 1.2-1.2 1.7-1.8 5.9-7.4 4.2-18.3-3.8-23.6"/>
			</g>
		</g>
	</g>
</svg>